<svg xmlns="http://www.w3.org/2000/svg" width="146" height="26" viewBox="0 0 146 26" fill="none"><path d="M40.2095 20.8611C38.4797 20.8611 36.9685 20.4825 35.676 19.724C34.3824 18.9667 33.3696 17.9171 32.6365 16.574C31.9033 15.232 31.5374 13.6794 31.5374 11.9162C31.5374 10.153 31.9033 8.60159 32.6365 7.25847C33.3696 5.9165 34.3824 4.86572 35.676 4.10842C36.9685 3.35112 38.4808 2.97131 40.2095 2.97131C41.9382 2.97131 43.4298 3.34996 44.7314 4.10842C46.032 4.86572 47.0448 5.9165 47.771 7.25847C48.4961 8.60159 48.8575 10.1542 48.8575 11.9162C48.8575 13.6783 48.4949 15.2309 47.771 16.574C47.0459 17.9171 46.0331 18.9667 44.7314 19.724C43.4298 20.4825 41.9232 20.8611 40.2095 20.8611ZM40.2095 18.0195C41.8565 18.0195 43.1708 17.4763 44.1502 16.3887C45.1297 15.3011 45.6211 13.8106 45.6211 11.9162C45.6211 10.0218 45.1308 8.53138 44.1502 7.44377C43.1696 6.35615 41.8565 5.81292 40.2095 5.81292C38.5625 5.81292 37.2447 6.35615 36.2561 7.44377C35.2675 8.53138 34.7737 10.0218 34.7737 11.9162C34.7737 13.8106 35.2675 15.3011 36.2561 16.3887C37.2447 17.4763 38.5614 18.0195 40.2095 18.0195Z" fill="#262626"></path><path d="M50.9581 25.9999V8.30805H53.7744L54.1196 10.062C54.5144 9.51881 55.0381 9.04118 55.6883 8.62915C56.3386 8.21828 57.1834 8.01111 58.2215 8.01111C59.3747 8.01111 60.4036 8.29193 61.3105 8.85128C62.2163 9.41177 62.9333 10.1771 63.4604 11.1497C63.9876 12.1222 64.2511 13.2248 64.2511 14.4608C64.2511 15.6969 63.9876 16.796 63.4604 17.7594C62.9333 18.7227 62.2163 19.4811 61.3105 20.0324C60.4048 20.5849 59.3747 20.8599 58.2215 20.8599C57.2984 20.8599 56.4917 20.6873 55.8 20.3409C55.1083 19.9944 54.5478 19.5087 54.1196 18.8826V25.9988H50.9569L50.9581 25.9999ZM57.5551 18.0931C58.5599 18.0931 59.392 17.7559 60.0503 17.0803C60.7098 16.4047 61.0389 15.5323 61.0389 14.4608C61.0389 13.3893 60.7098 12.5089 60.0503 11.8172C59.3908 11.1255 58.5599 10.7791 57.5551 10.7791C56.5504 10.7791 55.6975 11.1209 55.0473 11.8045C54.3958 12.4882 54.0713 13.3652 54.0713 14.4355C54.0713 15.5059 54.3958 16.384 55.0473 17.0677C55.6975 17.7513 56.5331 18.0931 57.5551 18.0931Z" fill="#262626"></path><path d="M72.4051 20.8609C71.1702 20.8609 70.0745 20.5974 69.1193 20.0702C68.164 19.5431 67.4136 18.8019 66.8704 17.8467C66.3272 16.8914 66.0555 15.7877 66.0555 14.5366C66.0555 13.2856 66.3226 12.1393 66.8589 11.1518C67.3941 10.1632 68.1352 9.3932 69.0824 8.84191C70.0296 8.29062 71.146 8.0144 72.4305 8.0144C73.632 8.0144 74.6943 8.27797 75.6173 8.80509C76.5392 9.3322 77.2609 10.0527 77.7788 10.9677C78.2978 11.8815 78.5568 12.8989 78.5568 14.0199C78.5568 14.2006 78.5522 14.3905 78.5441 14.5884C78.5349 14.7864 78.5234 14.9924 78.5073 15.2065H69.1918C69.2574 16.1617 69.5912 16.911 70.1919 17.4542C70.7927 17.9986 71.5224 18.2702 72.3787 18.2702C73.0209 18.2702 73.5607 18.1263 73.9969 17.8375C74.4331 17.5497 74.7588 17.1745 74.9728 16.713H78.185C77.9548 17.4876 77.5716 18.1919 77.0364 18.8249C76.5012 19.4591 75.8418 19.9575 75.0603 20.32C74.2777 20.6825 73.3926 20.8644 72.404 20.8644L72.4051 20.8609ZM72.4305 10.5821C71.6559 10.5821 70.9723 10.8008 70.3795 11.237C69.7868 11.6732 69.407 12.3361 69.2436 13.2257H75.3457C75.2962 12.419 75.0004 11.7767 74.4561 11.298C73.9117 10.8203 73.2373 10.5809 72.4305 10.5809V10.5821Z" fill="#262626"></path><path d="M80.6078 20.564V8.30909H83.4241L83.721 10.6075C84.1653 9.81679 84.7706 9.18724 85.5372 8.71766C86.3037 8.24809 87.2048 8.01331 88.243 8.01331V11.3487H87.3533C86.6616 11.3487 86.0436 11.4557 85.5003 11.6698C84.9571 11.8838 84.5324 12.2544 84.2274 12.7815C83.9224 13.3087 83.7705 14.0418 83.7705 14.9809V20.5652H80.6078V20.564Z" fill="#262626"></path><path d="M93.9997 20.8613C92.9455 20.8613 92.08 20.6921 91.4055 20.3549C90.73 20.0176 90.2282 19.5688 89.8978 19.0083C89.5687 18.4489 89.403 17.8309 89.403 17.1553C89.403 16.0182 89.8472 15.0963 90.7369 14.3874C91.6265 13.6796 92.9604 13.3251 94.7397 13.3251H97.853V13.0281C97.853 12.188 97.6136 11.5699 97.1359 11.1752C96.6572 10.7804 96.0644 10.5824 95.3566 10.5824C94.7144 10.5824 94.1539 10.7355 93.6763 11.0394C93.1975 11.3444 92.9017 11.7932 92.7866 12.3859H89.6987C89.7804 11.4963 90.0808 10.7217 90.5999 10.0634C91.119 9.40506 91.79 8.89865 92.614 8.54417C93.4381 8.18969 94.3599 8.01245 95.382 8.01245C97.1279 8.01245 98.5032 8.44865 99.508 9.32219C100.513 10.1957 101.016 11.4307 101.016 13.0281V20.5643H98.3225L98.0268 18.5882C97.6642 19.2477 97.1578 19.7909 96.5064 20.2191C95.855 20.6472 95.0194 20.8613 93.9985 20.8613H93.9997ZM94.7167 18.3902C95.6225 18.3902 96.3269 18.0933 96.8287 17.5006C97.3316 16.9079 97.6481 16.1747 97.7805 15.3012H95.0873C94.2472 15.3012 93.6452 15.4543 93.2838 15.7581C92.9213 16.0631 92.7395 16.4383 92.7395 16.8825C92.7395 17.3602 92.9201 17.7308 93.2838 17.9943C93.6452 18.2579 94.124 18.3891 94.7167 18.3891V18.3902Z" fill="#262626"></path><path d="M108.702 20.5644C107.417 20.5644 106.387 20.2513 105.613 19.6252C104.838 18.9991 104.451 17.8873 104.451 16.2899V10.9531H102.351V8.30942H104.451L104.822 5.02356H107.614V8.30942H110.925V10.9531H107.614V16.3152C107.614 16.9079 107.742 17.3153 107.997 17.5386C108.253 17.7607 108.692 17.8724 109.318 17.8724H110.85V20.5655H108.7L108.702 20.5644Z" fill="#262626"></path><path d="M118.659 20.8609C117.424 20.8609 116.329 20.5974 115.373 20.0702C114.418 19.5431 113.668 18.8019 113.124 17.8467C112.581 16.8914 112.31 15.7877 112.31 14.5366C112.31 13.2856 112.577 12.1393 113.113 11.1518C113.648 10.1632 114.389 9.3932 115.336 8.84191C116.284 8.29062 117.4 8.0144 118.684 8.0144C119.886 8.0144 120.948 8.27797 121.871 8.80509C122.793 9.3322 123.515 10.0527 124.033 10.9677C124.551 11.8826 124.811 12.8989 124.811 14.0199C124.811 14.2006 124.806 14.3905 124.798 14.5884C124.789 14.7864 124.777 14.9924 124.761 15.2065H115.446C115.511 16.1617 115.845 16.911 116.446 17.4542C117.047 17.9986 117.776 18.2702 118.633 18.2702C119.275 18.2702 119.815 18.1263 120.251 17.8375C120.687 17.5497 121.013 17.1745 121.227 16.713H124.439C124.209 17.4876 123.826 18.1919 123.29 18.8249C122.755 19.4591 122.096 19.9575 121.314 20.32C120.532 20.6825 119.647 20.8644 118.658 20.8644L118.659 20.8609ZM118.684 10.5821C117.91 10.5821 117.226 10.8008 116.634 11.237C116.041 11.6732 115.661 12.3361 115.498 13.2257H121.6C121.55 12.419 121.254 11.7767 120.71 11.298C120.166 10.8203 119.491 10.5809 118.684 10.5809V10.5821Z" fill="#262626"></path><path d="M126.862 20.564V2.77429H130.025V20.564H126.862Z" fill="#262626"></path><path d="M134.176 26L137.018 19.7482H136.276L131.507 8.30811H134.941L138.376 16.9319L141.958 8.30811H145.319L137.537 26H134.176Z" fill="#262626"></path><path d="M15.7572 23.6351H7.87915V15.7571L15.7572 23.6351Z" fill="#024FAC"></path><path d="M7.87915 -0.00012207H15.7572V7.87789L7.87915 -0.00012207Z" fill="#024FAC"></path><path d="M15.7572 -0.00012207V7.87789V15.7571V23.6351L23.6364 15.7571V7.87789L15.7572 -0.00012207Z" fill="#3185FF"></path><path d="M0 7.87801V15.7572L7.87916 23.6352V15.7572V7.87801V0L0 7.87801Z" fill="#3185FF"></path></svg>